<svg xmlns="http://www.w3.org/2000/svg" viewBox="0 0 454.63 74.91"><title>Asset 1</title><g data-name="Layer 2"><path d="M50.93 44.66L19.69 0H0v73.59h17.71V27.5l32.01 46.09h18.81V0h-17.6v44.66zm55.88-28.38c-16.39 0-30.47 12-30.47 28.93v.88c0 16.94 14.08 28.82 30.47 28.82S137.28 63 137.28 46.09v-.88c0-16.94-14.08-28.93-30.47-28.93zm0 43.45c-7.48 0-13.2-6-13.2-14 0-8.14 5.72-14.3 13.2-14.3S120 37.62 120 45.76c0 7.92-5.71 13.97-13.19 13.97zm55.11-28.27V17.6H145v56h17V46.42c0-8.47 6.6-13.75 15.4-13.75a17.64 17.64 0 0 1 5.06.66v-16.5a16.79 16.79 0 0 0-4.51-.55c-9.1 0-14.05 5.5-16.03 15.18zm273.46-15.18c-9.46 0-15.29 5.39-17.71 13.53V17.6h-16.83v56h17V43.45c0-7.48 3.85-11.77 10.12-11.77 6 0 9.57 4 9.57 11.11v30.8h17.05V36.85c.05-15.18-9.52-20.57-19.2-20.57zm-115.83 0c-16.61 0-30 11.66-30 29V46c0 17.93 13.64 28.93 30.58 28.93 13.09 0 24.31-6.71 28.71-17.27l-17.6-2.53c-2 3.41-6 5.17-11 5.17-6.82 0-11.55-3.41-13.09-9.57h42.35v-5.41c-.03-17.38-13.23-29.04-29.95-29.04zm-12.32 23.1c1.65-5.72 5.83-9 12.32-9s10.67 3.3 12.32 9zm66.99-7.92V17.6h-16.94v56h17V46.42c0-8.47 6.6-13.75 15.4-13.75a17.64 17.64 0 0 1 5.06.66v-16.5a16.79 16.79 0 0 0-4.51-.55c-9.08 0-14.03 5.5-16.01 15.18zM262.57 16.28c-9.35 0-15.07 5.17-17.6 13.2V0h-17.05v73.59H245V43.45c0-7.48 4-11.77 10.23-11.77 6 0 9.46 4 9.46 11.11v30.8h17V36.85c.02-15.18-9.55-20.57-19.12-20.57zM205.59 0h-17.05v73.59h17.05V33.33h16.39V17.6h-16.39V0z" data-name="Layer 1"/></g></svg>